<svg width="92" height="143" viewBox="0 0 92 143" fill="none" xmlns="http://www.w3.org/2000/svg">
<path d="M15 1H77C84.732 1 91 7.26801 91 15V128C91 135.732 84.732 142 77 142H15C7.26802 142 1 135.732 1 128V15C1 7.26801 7.26801 1 15 1Z" fill="white" stroke="black" stroke-width="2"/>
<path d="M32.5903 77.0447C31.217 77.0447 30.067 76.768 29.1403 76.2147C28.2136 75.6614 27.5136 74.868 27.0403 73.8347C26.567 72.7947 26.3303 71.5514 26.3303 70.1047C26.3303 68.7514 26.547 67.5547 26.9803 66.5147C27.4203 65.4747 28.0603 64.6614 28.9003 64.0747C29.747 63.4814 30.7803 63.1847 32.0003 63.1847C32.767 63.1847 33.447 63.298 34.0403 63.5247C34.6336 63.7447 35.137 64.028 35.5503 64.3747C35.9703 64.7214 36.2936 65.078 36.5203 65.4447C36.447 65.5447 36.3236 65.6814 36.1503 65.8547C35.977 66.0214 35.787 66.1914 35.5803 66.3647C35.3803 66.538 35.187 66.6814 35.0003 66.7947C34.727 66.368 34.4403 66.0347 34.1403 65.7947C33.847 65.548 33.5203 65.3747 33.1603 65.2747C32.8003 65.1747 32.387 65.1247 31.9203 65.1247C31.507 65.1247 31.0903 65.2247 30.6703 65.4247C30.257 65.6247 29.877 65.928 29.5303 66.3347C29.1836 66.7414 28.9036 67.2547 28.6903 67.8747C28.4836 68.4947 28.3803 69.2214 28.3803 70.0547C28.3803 71.1214 28.5303 72.0414 28.8303 72.8147C29.137 73.5814 29.6003 74.1747 30.2203 74.5947C30.847 75.008 31.6403 75.2147 32.6003 75.2147C33.3203 75.2147 33.8936 75.0647 34.3203 74.7647C34.747 74.4647 35.0503 74.0714 35.2303 73.5847C35.417 73.098 35.5103 72.5747 35.5103 72.0147C35.5103 71.8947 35.507 71.7747 35.5003 71.6547C35.5003 71.528 35.4936 71.4114 35.4803 71.3047C35.3336 71.2714 35.0836 71.2314 34.7303 71.1847C34.3836 71.1314 33.9936 71.078 33.5603 71.0247C33.1336 70.9714 32.7203 70.9247 32.3203 70.8847C31.9203 70.838 31.5936 70.8114 31.3403 70.8047C31.3336 70.678 31.3303 70.5214 31.3303 70.3347C31.3303 70.1414 31.3336 69.9447 31.3403 69.7447C31.347 69.5447 31.3536 69.3847 31.3603 69.2647C31.8603 69.2847 32.467 69.328 33.1803 69.3947C33.8936 69.4614 34.6136 69.5447 35.3403 69.6447C36.0736 69.7447 36.717 69.858 37.2703 69.9847C37.317 70.258 37.3503 70.548 37.3703 70.8547C37.397 71.1547 37.4103 71.4414 37.4103 71.7147C37.4103 72.7347 37.2403 73.648 36.9003 74.4547C36.567 75.2614 36.047 75.8947 35.3403 76.3547C34.6336 76.8147 33.717 77.0447 32.5903 77.0447ZM40.0742 76.8347C40.0342 76.088 39.9875 75.178 39.9342 74.1047C39.8809 73.0247 39.8242 71.868 39.7642 70.6347C39.7042 69.3947 39.6409 68.1614 39.5742 66.9347C39.5142 65.7014 39.4575 64.568 39.4042 63.5347C39.6442 63.5147 39.9342 63.4914 40.2742 63.4647C40.6209 63.438 40.9875 63.4147 41.3742 63.3947C41.7675 63.368 42.1575 63.348 42.5442 63.3347C42.9309 63.3214 43.2842 63.3147 43.6042 63.3147C44.0975 63.3147 44.5842 63.3614 45.0642 63.4547C45.5442 63.548 45.9775 63.7114 46.3642 63.9447C46.7509 64.178 47.0575 64.508 47.2842 64.9347C47.5175 65.3547 47.6342 65.898 47.6342 66.5647C47.6342 67.2514 47.4675 67.8914 47.1342 68.4847C46.8075 69.078 46.3109 69.508 45.6442 69.7747C45.7975 70.028 45.9675 70.3647 46.1542 70.7847C46.3475 71.198 46.5442 71.6547 46.7442 72.1547C46.9442 72.648 47.1342 73.1447 47.3142 73.6447C47.5009 74.1447 47.6642 74.6114 47.8042 75.0447C47.9442 75.4714 48.0475 75.8214 48.1142 76.0947C47.9942 76.1747 47.8342 76.2514 47.6342 76.3247C47.4409 76.398 47.2375 76.4647 47.0242 76.5247C46.8175 76.5847 46.6342 76.6347 46.4742 76.6747C46.3142 76.7147 46.2075 76.7347 46.1542 76.7347C46.0875 76.3614 45.9875 75.9314 45.8542 75.4447C45.7209 74.9514 45.5675 74.4447 45.3942 73.9247C45.2209 73.398 45.0475 72.8947 44.8742 72.4147C44.7009 71.928 44.5409 71.4947 44.3942 71.1147C44.2475 70.7347 44.1275 70.448 44.0342 70.2547C43.7809 70.3214 43.5075 70.378 43.2142 70.4247C42.9275 70.4714 42.6575 70.508 42.4042 70.5347C42.1509 70.5547 41.9575 70.568 41.8242 70.5747C41.8375 70.688 41.8575 70.9214 41.8842 71.2747C41.9109 71.6214 41.9409 72.038 41.9742 72.5247C42.0075 73.0114 42.0409 73.518 42.0742 74.0447C42.1075 74.5714 42.1375 75.068 42.1642 75.5347C42.1975 76.0014 42.2242 76.3914 42.2442 76.7047C42.0775 76.738 41.8675 76.7647 41.6142 76.7847C41.3675 76.8047 41.1075 76.818 40.8342 76.8247C40.5609 76.8314 40.3075 76.8347 40.0742 76.8347ZM41.6742 68.9847C41.9609 68.9847 42.2509 68.9714 42.5442 68.9447C42.8375 68.918 43.1675 68.868 43.5342 68.7947C44.1675 68.6614 44.6475 68.498 44.9742 68.3047C45.3075 68.1047 45.5309 67.868 45.6442 67.5947C45.7642 67.3147 45.8242 66.988 45.8242 66.6147C45.8242 66.068 45.7109 65.668 45.4842 65.4147C45.2575 65.1614 44.9575 64.998 44.5842 64.9247C44.2175 64.8447 43.8109 64.8047 43.3642 64.8047C43.2575 64.8047 43.1042 64.8114 42.9042 64.8247C42.7109 64.8314 42.5042 64.8447 42.2842 64.8647C42.0709 64.878 41.8775 64.8947 41.7042 64.9147C41.5309 64.928 41.4109 64.938 41.3442 64.9447C41.3509 65.058 41.3642 65.2547 41.3842 65.5347C41.4109 65.808 41.4375 66.1214 41.4642 66.4747C41.4975 66.828 41.5275 67.178 41.5542 67.5247C41.5809 67.8714 41.6042 68.178 41.6242 68.4447C41.6509 68.7114 41.6675 68.8914 41.6742 68.9847ZM53.0017 76.6547C52.8484 76.6547 52.6517 76.6514 52.4117 76.6447C52.1784 76.6447 51.9417 76.638 51.7017 76.6247C51.4684 76.6114 51.2684 76.5914 51.1017 76.5647C51.0884 76.078 51.075 75.4747 51.0617 74.7547C51.0484 74.0347 51.0384 73.2814 51.0317 72.4947C51.025 71.708 51.0217 70.988 51.0217 70.3347C51.0217 69.388 51.025 68.328 51.0317 67.1547C51.045 65.9747 51.0584 64.7247 51.0717 63.4047C51.145 63.398 51.2584 63.3914 51.4117 63.3847C51.565 63.378 51.735 63.3747 51.9217 63.3747C52.115 63.368 52.3017 63.3647 52.4817 63.3647C52.6617 63.358 52.8184 63.3547 52.9517 63.3547C52.9784 64.168 53.0017 65.0214 53.0217 65.9147C53.0484 66.808 53.0684 67.6814 53.0817 68.5347C53.095 69.388 53.1017 70.1647 53.1017 70.8647C53.1017 71.178 53.0984 71.5547 53.0917 71.9947C53.0917 72.4347 53.0884 72.8947 53.0817 73.3747C53.0817 73.8547 53.075 74.318 53.0617 74.7647C53.055 75.2047 53.045 75.5947 53.0317 75.9347C53.025 76.268 53.015 76.508 53.0017 76.6547ZM60.5762 76.6847C59.9496 76.6847 59.3529 76.5947 58.7862 76.4147C58.2262 76.228 57.7096 75.988 57.2362 75.6947C56.7696 75.3947 56.3629 75.068 56.0162 74.7147C55.6696 74.3614 55.4062 74.0147 55.2262 73.6747C55.2662 73.6214 55.3429 73.5414 55.4562 73.4347C55.5696 73.3214 55.6996 73.2047 55.8462 73.0847C55.9929 72.958 56.1362 72.8414 56.2762 72.7347C56.4229 72.6214 56.5429 72.538 56.6362 72.4847C56.7829 72.6914 56.9762 72.938 57.2162 73.2247C57.4562 73.5114 57.7396 73.7947 58.0662 74.0747C58.3996 74.348 58.7762 74.578 59.1962 74.7647C59.6229 74.9447 60.0896 75.0347 60.5962 75.0347C61.2362 75.0347 61.7529 74.9147 62.1462 74.6747C62.5396 74.428 62.8262 74.1247 63.0062 73.7647C63.1862 73.398 63.2762 73.0347 63.2762 72.6747C63.2762 72.3347 63.1862 72.0347 63.0062 71.7747C62.8262 71.5147 62.5796 71.2847 62.2662 71.0847C61.9529 70.878 61.5896 70.6914 61.1762 70.5247C60.7629 70.358 60.3262 70.2047 59.8662 70.0647C59.0796 69.818 58.3862 69.538 57.7862 69.2247C57.1862 68.9114 56.7162 68.5214 56.3762 68.0547C56.0362 67.588 55.8662 67.0014 55.8662 66.2947C55.8662 65.5747 56.0629 64.978 56.4562 64.5047C56.8496 64.0247 57.3729 63.668 58.0262 63.4347C58.6796 63.1947 59.3862 63.0747 60.1462 63.0747C60.8462 63.0747 61.4996 63.168 62.1062 63.3547C62.7196 63.5414 63.2529 63.7747 63.7062 64.0547C64.1596 64.328 64.4962 64.608 64.7162 64.8947C64.6562 64.988 64.5596 65.1214 64.4262 65.2947C64.2929 65.468 64.1529 65.638 64.0062 65.8047C63.8662 65.9714 63.7429 66.1014 63.6362 66.1947C63.4562 65.9947 63.1962 65.7747 62.8562 65.5347C62.5229 65.288 62.1196 65.078 61.6462 64.9047C61.1796 64.7247 60.6429 64.6347 60.0362 64.6347C59.3696 64.6347 58.8362 64.7947 58.4362 65.1147C58.0362 65.428 57.8362 65.8514 57.8362 66.3847C57.8362 66.6714 57.9062 66.918 58.0462 67.1247C58.1862 67.3314 58.3696 67.508 58.5962 67.6547C58.8229 67.7947 59.0729 67.918 59.3462 68.0247C59.6196 68.1314 59.8929 68.2214 60.1662 68.2947C60.8262 68.4947 61.4596 68.7047 62.0662 68.9247C62.6796 69.1447 63.2262 69.408 63.7062 69.7147C64.1929 70.0214 64.5762 70.4014 64.8562 70.8547C65.1362 71.3014 65.2762 71.8514 65.2762 72.5047C65.2762 73.0514 65.1696 73.5747 64.9562 74.0747C64.7429 74.5747 64.4329 75.0214 64.0262 75.4147C63.6262 75.808 63.1362 76.118 62.5562 76.3447C61.9762 76.5714 61.3162 76.6847 60.5762 76.6847Z" fill="#9C9C9C"/>
<path d="M29.1403 76.2147L29.2685 76.0001L29.1403 76.2147ZM27.0403 73.8347L26.8127 73.9383L26.813 73.9388L27.0403 73.8347ZM26.9803 66.5147L26.75 66.4173L26.7495 66.4185L26.9803 66.5147ZM28.9003 64.0747L29.0434 64.2797L29.0438 64.2794L28.9003 64.0747ZM34.0403 63.5247L33.9511 63.7582L33.9534 63.7591L34.0403 63.5247ZM35.5503 64.3747L35.3896 64.5663L35.3911 64.5675L35.5503 64.3747ZM36.5203 65.4447L36.7219 65.5925L36.8216 65.4566L36.7329 65.3132L36.5203 65.4447ZM36.1503 65.8547L36.3236 66.0349L36.3271 66.0315L36.1503 65.8547ZM35.5803 66.3647L35.4196 66.1731L35.4166 66.1758L35.5803 66.3647ZM35.0003 66.7947L34.7898 66.9296L34.9214 67.135L35.13 67.0084L35.0003 66.7947ZM34.1403 65.7947L33.9793 65.9861L33.9841 65.9899L34.1403 65.7947ZM33.1603 65.2747L33.2272 65.0338L33.2272 65.0338L33.1603 65.2747ZM30.6703 65.4247L30.5628 65.199L30.5614 65.1997L30.6703 65.4247ZM29.5303 66.3347L29.7205 66.4969L29.7205 66.4969L29.5303 66.3347ZM28.6903 67.8747L28.4539 67.7934L28.4531 67.7956L28.6903 67.8747ZM28.8303 72.8147L28.5972 72.9051L28.5982 72.9075L28.8303 72.8147ZM30.2203 74.5947L30.0801 74.8017L30.0826 74.8034L30.2203 74.5947ZM35.2303 73.5847L34.9969 73.4952L34.9958 73.498L35.2303 73.5847ZM35.5003 71.6547H35.2499L35.2507 71.6686L35.5003 71.6547ZM35.4803 71.3047L35.7284 71.2737L35.7066 71.0998L35.5357 71.0609L35.4803 71.3047ZM34.7303 71.1847L34.6923 71.4318L34.6976 71.4325L34.7303 71.1847ZM33.5603 71.0247L33.5293 71.2728L33.5297 71.2728L33.5603 71.0247ZM32.3203 70.8847L32.2913 71.133L32.2954 71.1335L32.3203 70.8847ZM31.3403 70.8047L31.0906 70.8178L31.1028 71.0485L31.3337 71.0546L31.3403 70.8047ZM31.3403 69.7447L31.0904 69.7364L31.0904 69.7364L31.3403 69.7447ZM31.3603 69.2647L31.3703 69.0149L31.1243 69.0051L31.1107 69.2508L31.3603 69.2647ZM33.1803 69.3947L33.157 69.6436L33.157 69.6436L33.1803 69.3947ZM35.3403 69.6447L35.3062 69.8924L35.3065 69.8924L35.3403 69.6447ZM37.2703 69.9847L37.5167 69.9426L37.4887 69.7782L37.3261 69.741L37.2703 69.9847ZM37.3703 70.8547L37.1207 70.871L37.1213 70.8768L37.3703 70.8547ZM36.9003 74.4547L36.6699 74.3576L36.6692 74.3592L36.9003 74.4547ZM32.5903 76.7947C31.25 76.7947 30.1471 76.5247 29.2685 76.0001L29.0121 76.4293C29.9868 77.0113 31.1839 77.2947 32.5903 77.2947V76.7947ZM29.2685 76.0001C28.3876 75.4741 27.721 74.7205 27.2676 73.7306L26.813 73.9388C27.3062 75.0156 28.0396 75.8486 29.0121 76.4293L29.2685 76.0001ZM27.2678 73.7311C26.8127 72.7311 26.5803 71.5248 26.5803 70.1047H26.0803C26.0803 71.5779 26.3212 72.8583 26.8127 73.9383L27.2678 73.7311ZM26.5803 70.1047C26.5803 68.7779 26.7927 67.6149 27.2111 66.6109L26.7495 66.4185C26.3012 67.4945 26.0803 68.7249 26.0803 70.1047H26.5803ZM27.2105 66.6121C27.6341 65.6109 28.2459 64.8367 29.0434 64.2797L28.7571 63.8697C27.8747 64.4861 27.2064 65.3385 26.75 66.4173L27.2105 66.6121ZM29.0438 64.2794C29.8412 63.7206 30.8221 63.4347 32.0003 63.4347V62.9347C30.7384 62.9347 29.6527 63.2422 28.7568 63.87L29.0438 64.2794ZM32.0003 63.4347C32.7426 63.4347 33.3914 63.5444 33.9511 63.7582L34.1295 63.2912C33.5025 63.0516 32.7913 62.9347 32.0003 62.9347V63.4347ZM33.9534 63.7591C34.5244 63.9708 35.0017 64.2409 35.3896 64.5662L35.7109 64.1831C35.2722 63.8152 34.7428 63.5186 34.1272 63.2903L33.9534 63.7591ZM35.3911 64.5675C35.7954 64.9011 36.0985 65.2379 36.3076 65.5762L36.7329 65.3132C36.4887 64.9181 36.1452 64.5416 35.7094 64.1819L35.3911 64.5675ZM36.3187 65.2969C36.257 65.3809 36.1447 65.5067 35.9735 65.6779L36.3271 66.0315C36.5025 65.856 36.6369 65.7085 36.7219 65.5925L36.3187 65.2969ZM35.977 65.6745C35.8082 65.8368 35.6225 66.003 35.4196 66.1731L35.7409 66.5562C35.9514 66.3797 36.1457 66.2059 36.3236 66.0349L35.977 65.6745ZM35.4166 66.1758C35.225 66.3418 35.043 66.4763 34.8705 66.581L35.13 67.0084C35.3309 66.8864 35.5355 66.7343 35.744 66.5536L35.4166 66.1758ZM35.2108 66.6598C34.9272 66.2171 34.6233 65.861 34.2965 65.5995L33.9841 65.9899C34.2573 66.2084 34.5267 66.519 34.7898 66.9296L35.2108 66.6598ZM34.3012 65.6034C33.9812 65.3342 33.6226 65.1437 33.2272 65.0338L33.0934 65.5156C33.418 65.6057 33.7127 65.7618 33.9794 65.986L34.3012 65.6034ZM33.2272 65.0338C32.8408 64.9265 32.4042 64.8747 31.9203 64.8747V65.3747C32.3697 65.3747 32.7598 65.4229 33.0934 65.5156L33.2272 65.0338ZM31.9203 64.8747C31.4653 64.8747 31.0121 64.985 30.5628 65.199L30.7778 65.6504C31.1684 65.4644 31.5486 65.3747 31.9203 65.3747V64.8747ZM30.5614 65.1997C30.1122 65.417 29.7055 65.7438 29.34 66.1725L29.7205 66.4969C30.0484 66.1123 30.4017 65.8324 30.7792 65.6497L30.5614 65.1997ZM29.34 66.1725C28.969 66.6077 28.6752 67.1503 28.4539 67.7934L28.9267 67.956C29.1321 67.3591 29.3982 66.875 29.7205 66.4969L29.34 66.1725ZM28.4531 67.7956C28.236 68.447 28.1303 69.2015 28.1303 70.0547H28.6303C28.6303 69.2412 28.7313 68.5424 28.9275 67.9538L28.4531 67.7956ZM28.1303 70.0547C28.1303 71.1439 28.2833 72.096 28.5972 72.9051L29.0634 72.7243C28.7772 71.9867 28.6303 71.0989 28.6303 70.0547H28.1303ZM28.5982 72.9075C28.9214 73.7156 29.4145 74.3508 30.0801 74.8017L30.3605 74.3877C29.7861 73.9986 29.3525 73.4471 29.0624 72.7218L28.5982 72.9075ZM30.0826 74.8034C30.7602 75.2503 31.6049 75.4647 32.6003 75.4647V74.9647C31.6757 74.9647 30.9337 74.7658 30.3579 74.386L30.0826 74.8034ZM32.6003 75.4647C33.3527 75.4647 33.982 75.3082 34.4641 74.9692L34.1765 74.5602C33.8052 74.8212 33.2879 74.9647 32.6003 74.9647V75.4647ZM34.4641 74.9692C34.932 74.6402 35.2671 74.2059 35.4648 73.6714L34.9958 73.498C34.8335 73.9368 34.5619 74.2892 34.1765 74.5602L34.4641 74.9692ZM35.4637 73.6742C35.6621 73.1569 35.7603 72.603 35.7603 72.0147H35.2603C35.2603 72.5464 35.1718 73.0391 34.9969 73.4952L35.4637 73.6742ZM35.7603 72.0147C35.7603 71.8901 35.7568 71.7654 35.7499 71.6408L35.2507 71.6686C35.2571 71.784 35.2603 71.8993 35.2603 72.0147H35.7603ZM35.7503 71.6547C35.7503 71.5194 35.7432 71.3923 35.7284 71.2737L35.2322 71.3357C35.2441 71.4305 35.2503 71.5366 35.2503 71.6547H35.7503ZM35.5357 71.0609C35.3767 71.0248 35.1165 70.9835 34.763 70.9368L34.6976 71.4325C35.0507 71.4792 35.2906 71.518 35.4249 71.5485L35.5357 71.0609ZM34.7683 70.9376C34.4186 70.8838 34.0261 70.8301 33.5908 70.7766L33.5297 71.2728C33.9612 71.3259 34.3486 71.3789 34.6923 71.4318L34.7683 70.9376ZM33.5913 70.7766C33.1627 70.7231 32.7473 70.6762 32.3452 70.6359L32.2954 71.1335C32.6932 71.1732 33.1045 71.2197 33.5293 71.2728L33.5913 70.7766ZM32.3493 70.6364C31.9456 70.5893 31.6107 70.5617 31.3469 70.5548L31.3337 71.0546C31.5765 71.061 31.895 71.0868 32.2913 71.133L32.3493 70.6364ZM31.5899 70.7916C31.5836 70.6708 31.5803 70.5188 31.5803 70.3347H31.0803C31.0803 70.5239 31.0837 70.6853 31.0906 70.8178L31.5899 70.7916ZM31.5803 70.3347C31.5803 70.1442 31.5836 69.9503 31.5901 69.753L31.0904 69.7364C31.0837 69.939 31.0803 70.1385 31.0803 70.3347H31.5803ZM31.5901 69.753C31.5968 69.5538 31.6034 69.3959 31.6099 69.2786L31.1107 69.2508C31.1039 69.3735 31.0971 69.5356 31.0904 69.7364L31.5901 69.753ZM31.3503 69.5145C31.8444 69.5343 32.4464 69.5772 33.157 69.6436L33.2035 69.1458C32.4875 69.0789 31.8761 69.0351 31.3703 69.0149L31.3503 69.5145ZM33.157 69.6436C33.8667 69.7099 34.583 69.7928 35.3062 69.8924L35.3744 69.397C34.6442 69.2965 33.9206 69.2128 33.2035 69.1458L33.157 69.6436ZM35.3065 69.8924C36.0345 69.9917 36.6702 70.1038 37.2145 70.2284L37.3261 69.741C36.7637 69.6123 36.1127 69.4977 35.3741 69.397L35.3065 69.8924ZM37.0239 70.0268C37.0689 70.2907 37.1013 70.572 37.1208 70.871L37.6198 70.8384C37.5993 70.524 37.565 70.2254 37.5167 69.9426L37.0239 70.0268ZM37.1213 70.8768C37.1473 71.1702 37.1603 71.4495 37.1603 71.7147H37.6603C37.6603 71.4333 37.6466 71.1392 37.6193 70.8326L37.1213 70.8768ZM37.1603 71.7147C37.1603 72.7068 36.995 73.5863 36.6699 74.3576L37.1307 74.5518C37.4856 73.7097 37.6603 72.7626 37.6603 71.7147H37.1603ZM36.6692 74.3592C36.3545 75.1209 35.8667 75.7138 35.2039 76.1452L35.4767 76.5642C36.2273 76.0756 36.7794 75.4018 37.1313 74.5502L36.6692 74.3592ZM35.2039 76.1452C34.5494 76.5712 33.6844 76.7947 32.5903 76.7947V77.2947C33.7495 77.2947 34.7179 77.0581 35.4767 76.5642L35.2039 76.1452ZM40.0742 76.8347L39.8246 76.8481L39.8372 77.0847H40.0742V76.8347ZM39.9342 74.1047L39.6845 74.117L39.6845 74.1171L39.9342 74.1047ZM39.7642 70.6347L39.5145 70.6468L39.5145 70.6468L39.7642 70.6347ZM39.5742 66.9347L39.3245 66.9468L39.3246 66.9483L39.5742 66.9347ZM39.4042 63.5347L39.3834 63.2856L39.142 63.3057L39.1545 63.5476L39.4042 63.5347ZM40.2742 63.4647L40.255 63.2154L40.2546 63.2155L40.2742 63.4647ZM41.3742 63.3947L41.3871 63.6444L41.3911 63.6441L41.3742 63.3947ZM45.0642 63.4547L45.1119 63.2093L45.1119 63.2093L45.0642 63.4547ZM46.3642 63.9447L46.235 64.1587L46.235 64.1587L46.3642 63.9447ZM47.2842 64.9347L47.0634 65.052L47.0657 65.0561L47.2842 64.9347ZM47.1342 68.4847L46.9162 68.3622L46.9152 68.3641L47.1342 68.4847ZM45.6442 69.7747L45.5513 69.5426L45.2777 69.652L45.4303 69.9041L45.6442 69.7747ZM46.1542 70.7847L45.9257 70.8863L45.9277 70.8906L46.1542 70.7847ZM46.7442 72.1547L46.5121 72.2475L46.5125 72.2486L46.7442 72.1547ZM47.3142 73.6447L47.079 73.7294L47.08 73.7321L47.3142 73.6447ZM47.8042 75.0447L47.5663 75.1216L47.5667 75.1226L47.8042 75.0447ZM48.1142 76.0947L48.2529 76.3027L48.3986 76.2056L48.3571 76.0355L48.1142 76.0947ZM47.6342 76.3247L47.5481 76.09L47.5455 76.0909L47.6342 76.3247ZM47.0242 76.5247L46.9565 76.284L46.9545 76.2846L47.0242 76.5247ZM46.4742 76.6747L46.5348 76.9172L46.5348 76.9172L46.4742 76.6747ZM46.1542 76.7347L45.9081 76.7786L45.9449 76.9847H46.1542V76.7347ZM45.8542 75.4447L45.6128 75.5099L45.6131 75.5108L45.8542 75.4447ZM45.3942 73.9247L45.1567 74.0029L45.157 74.0038L45.3942 73.9247ZM44.8742 72.4147L44.6387 72.4986L44.6391 72.4996L44.8742 72.4147ZM44.3942 71.1147L44.6274 71.0247L44.6274 71.0247L44.3942 71.1147ZM44.0342 70.2547L44.2593 70.146L44.1698 69.9605L43.9706 70.0129L44.0342 70.2547ZM43.2142 70.4247L43.1749 70.1778L43.174 70.1779L43.2142 70.4247ZM42.4042 70.5347L42.4239 70.784L42.4304 70.7833L42.4042 70.5347ZM41.8242 70.5747L41.8117 70.325L41.5447 70.3384L41.5759 70.6039L41.8242 70.5747ZM41.8842 71.2747L41.6349 71.2935L41.6349 71.2939L41.8842 71.2747ZM41.9742 72.5247L41.7248 72.5418L41.7248 72.5418L41.9742 72.5247ZM42.0742 74.0447L42.3237 74.0289L42.3237 74.0289L42.0742 74.0447ZM42.1642 75.5347L41.9146 75.549L41.9148 75.5525L42.1642 75.5347ZM42.2442 76.7047L42.2932 76.9498L42.5076 76.907L42.4937 76.6888L42.2442 76.7047ZM41.6142 76.7847L41.5945 76.5355L41.594 76.5355L41.6142 76.7847ZM41.6742 68.9847L41.4248 69.0025L41.4414 69.2347H41.6742V68.9847ZM43.5342 68.7947L43.5832 69.0399L43.5857 69.0393L43.5342 68.7947ZM44.9742 68.3047L45.1015 68.5198L45.1028 68.5191L44.9742 68.3047ZM45.6442 67.5947L45.4144 67.4962L45.4133 67.4989L45.6442 67.5947ZM45.4842 65.4147L45.2979 65.5814L45.2979 65.5814L45.4842 65.4147ZM44.5842 64.9247L44.5309 65.169L44.536 65.17L44.5842 64.9247ZM42.9042 64.8247L42.9128 65.0747L42.9208 65.0741L42.9042 64.8247ZM42.2842 64.8647L42.2998 65.1143L42.3068 65.1137L42.2842 64.8647ZM41.7042 64.9147L41.7234 65.1641L41.7328 65.163L41.7042 64.9147ZM41.3442 64.9447L41.3193 64.6959L41.0805 64.7198L41.0946 64.9594L41.3442 64.9447ZM41.3842 65.5347L41.1347 65.5525L41.1354 65.559L41.3842 65.5347ZM41.4642 66.4747L41.2149 66.4935L41.2153 66.4982L41.4642 66.4747ZM41.6242 68.4447L41.3748 68.4634L41.3754 68.4696L41.6242 68.4447ZM40.3238 76.8213C40.2839 76.0751 40.2372 75.1654 40.1839 74.0923L39.6845 74.1171C39.7378 75.1906 39.7845 76.101 39.8246 76.8481L40.3238 76.8213ZM40.1839 74.0924C40.1306 73.0124 40.0739 71.8558 40.0139 70.6225L39.5145 70.6468C39.5745 71.8802 39.6312 73.037 39.6845 74.117L40.1839 74.0924ZM40.0139 70.6226C39.9539 69.3821 39.8905 68.1483 39.8238 66.9211L39.3246 66.9483C39.3912 68.1744 39.4545 69.4073 39.5145 70.6468L40.0139 70.6226ZM39.8239 66.9225C39.7639 65.689 39.7072 64.5554 39.6539 63.5218L39.1545 63.5476C39.2078 64.5806 39.2645 65.7137 39.3245 66.9468L39.8239 66.9225ZM39.425 63.7838C39.6644 63.7639 39.954 63.7406 40.2937 63.7139L40.2546 63.2155C39.9144 63.2421 39.624 63.2655 39.3834 63.2856L39.425 63.7838ZM40.2934 63.714C40.6377 63.6875 41.0023 63.6643 41.3871 63.6444L41.3613 63.145C40.9728 63.1651 40.604 63.1886 40.255 63.2154L40.2934 63.714ZM41.3911 63.6441C41.7817 63.6176 42.169 63.5978 42.5528 63.5845L42.5356 63.0848C42.1461 63.0983 41.7533 63.1184 41.3573 63.1453L41.3911 63.6441ZM42.5528 63.5845C42.9372 63.5713 43.2876 63.5647 43.6042 63.5647V63.0647C43.2808 63.0647 42.9245 63.0714 42.5356 63.0848L42.5528 63.5845ZM43.6042 63.5647C44.0817 63.5647 44.5523 63.6099 45.0165 63.7001L45.1119 63.2093C44.616 63.1129 44.1134 63.0647 43.6042 63.0647V63.5647ZM45.0165 63.7001C45.4701 63.7883 45.8755 63.9418 46.235 64.1587L46.4934 63.7306C46.0796 63.481 45.6183 63.3078 45.1119 63.2093L45.0165 63.7001ZM46.235 64.1587C46.5802 64.3671 46.8564 64.6624 47.0634 65.052L47.505 64.8174C47.2586 64.3537 46.9215 63.989 46.4934 63.7306L46.235 64.1587ZM47.0657 65.0561C47.2719 65.4273 47.3842 65.9249 47.3842 66.5647H47.8842C47.8842 65.8712 47.7632 65.282 47.5027 64.8133L47.0657 65.0561ZM47.3842 66.5647C47.3842 67.2089 47.2284 67.8067 46.9162 68.3622L47.3522 68.6071C47.7067 67.9761 47.8842 67.2938 47.8842 66.5647H47.3842ZM46.9152 68.3641C46.6182 68.9036 46.1678 69.296 45.5513 69.5426L45.737 70.0068C46.4539 69.7201 46.9969 69.2524 47.3532 68.6053L46.9152 68.3641ZM45.4303 69.9041C45.5761 70.145 45.7413 70.4712 45.9257 70.8862L46.3826 70.6832C46.1938 70.2582 46.0189 69.911 45.8581 69.6452L45.4303 69.9041ZM45.9277 70.8906C46.1187 71.299 46.3135 71.7512 46.5121 72.2475L46.9763 72.0618C46.7749 71.5582 46.5763 71.0971 46.3806 70.6788L45.9277 70.8906ZM46.5125 72.2486C46.7113 72.7389 46.9001 73.2325 47.079 73.7294L47.5494 73.56C47.3683 73.0569 47.1771 72.5572 46.9759 72.0608L46.5125 72.2486ZM47.08 73.7321C47.2656 74.2292 47.4276 74.6923 47.5663 75.1216L48.0421 74.9678C47.9008 74.5304 47.7362 74.0602 47.5484 73.5573L47.08 73.7321ZM47.5667 75.1226C47.7057 75.5463 47.8068 75.8895 47.8713 76.1539L48.3571 76.0355C48.2882 75.7533 48.1827 75.3964 48.0417 74.9668L47.5667 75.1226ZM47.9755 75.8867C47.8777 75.9519 47.7375 76.0205 47.5481 76.09L47.7203 76.5594C47.9309 76.4822 48.1107 76.3975 48.2529 76.3027L47.9755 75.8867ZM47.5455 76.0909C47.3596 76.1615 47.1632 76.2259 46.9565 76.284L47.0919 76.7654C47.3118 76.7035 47.5222 76.6346 47.7229 76.5584L47.5455 76.0909ZM46.9545 76.2846C46.75 76.344 46.5698 76.3931 46.4136 76.4322L46.5348 76.9172C46.6986 76.8763 46.8851 76.8254 47.0939 76.7648L46.9545 76.2846ZM46.4136 76.4322C46.3362 76.4515 46.2748 76.4652 46.2281 76.474C46.2049 76.4783 46.1868 76.4812 46.1732 76.4829C46.1588 76.4847 46.1534 76.4847 46.1542 76.4847V76.9847C46.2437 76.9847 46.3807 76.9558 46.5348 76.9172L46.4136 76.4322ZM46.4003 76.6907C46.332 76.308 46.23 75.8704 46.0953 75.3786L45.6131 75.5108C45.745 75.9924 45.8431 76.4147 45.9081 76.7786L46.4003 76.6907ZM46.0955 75.3795C45.9609 74.8812 45.8061 74.3699 45.6314 73.8456L45.157 74.0038C45.3289 74.5195 45.4809 75.0216 45.6129 75.5099L46.0955 75.3795ZM45.6317 73.8465C45.4576 73.3178 45.2835 72.8122 45.1093 72.3298L44.6391 72.4996C44.8115 72.9772 44.9841 73.4783 45.1567 74.0029L45.6317 73.8465ZM45.1097 72.3308C44.9358 71.8426 44.7751 71.4072 44.6274 71.0247L44.161 71.2047C44.3067 71.5822 44.4659 72.0135 44.6387 72.4986L45.1097 72.3308ZM44.6274 71.0247C44.4801 70.6429 44.3572 70.3487 44.2593 70.146L43.8091 70.3634C43.8979 70.5474 44.015 70.8265 44.161 71.2047L44.6274 71.0247ZM43.9706 70.0129C43.7262 70.0772 43.4611 70.1323 43.1749 70.1778L43.2535 70.6716C43.5539 70.6238 43.8355 70.5655 44.0978 70.4965L43.9706 70.0129ZM43.174 70.1779C42.8914 70.224 42.6261 70.26 42.378 70.2861L42.4304 70.7833C42.689 70.7561 42.9637 70.7188 43.2544 70.6714L43.174 70.1779ZM42.3845 70.2855C42.1319 70.3054 41.9414 70.3185 41.8117 70.325L41.8367 70.8244C41.9737 70.8175 42.1699 70.804 42.4239 70.7839L42.3845 70.2855ZM41.5759 70.6039C41.5885 70.7111 41.6082 70.9392 41.6349 71.2935L42.1335 71.2559C42.1069 70.9036 42.0865 70.6649 42.0725 70.5455L41.5759 70.6039ZM41.6349 71.2939C41.6615 71.6396 41.6915 72.0556 41.7248 72.5418L42.2236 72.5076C42.1902 72.0205 42.1602 71.6031 42.1335 71.2555L41.6349 71.2939ZM41.7248 72.5418C41.7581 73.028 41.7914 73.5342 41.8247 74.0605L42.3237 74.0289C42.2903 73.5018 42.257 72.9947 42.2236 72.5076L41.7248 72.5418ZM41.8247 74.0605C41.858 74.5867 41.888 75.0829 41.9146 75.549L42.4138 75.5204C42.3871 75.0532 42.3571 74.556 42.3237 74.0289L41.8247 74.0605ZM41.9148 75.5525C41.9481 76.0188 41.9748 76.4081 41.9947 76.7206L42.4937 76.6888C42.4736 76.3746 42.4469 75.9839 42.4136 75.5169L41.9148 75.5525ZM42.1952 76.4596C42.0417 76.4903 41.8423 76.5159 41.5945 76.5355L41.6339 77.0339C41.8927 77.0135 42.1134 76.9858 42.2932 76.9498L42.1952 76.4596ZM41.594 76.5355C41.3525 76.5551 41.0972 76.5682 40.8281 76.5748L40.8403 77.0746C41.1178 77.0679 41.3826 77.0543 41.6344 77.0339L41.594 76.5355ZM40.8281 76.5748C40.5565 76.5814 40.3052 76.5847 40.0742 76.5847V77.0847C40.3099 77.0847 40.5653 77.0813 40.8403 77.0746L40.8281 76.5748ZM41.6742 69.2347C41.9686 69.2347 42.2662 69.221 42.5668 69.1937L42.5216 68.6957C42.2355 68.7217 41.9531 68.7347 41.6742 68.7347V69.2347ZM42.5668 69.1937C42.871 69.166 43.21 69.1145 43.5832 69.0398L43.4852 68.5496C43.125 68.6216 42.804 68.67 42.5216 68.6957L42.5668 69.1937ZM43.5857 69.0393C44.2297 68.9038 44.7405 68.7335 45.1015 68.5198L44.8469 68.0896C44.5546 68.2626 44.1054 68.419 43.4827 68.5501L43.5857 69.0393ZM45.1028 68.5191C45.4677 68.3001 45.7357 68.0268 45.8751 67.6905L45.4133 67.4989C45.326 67.7093 45.1473 67.9093 44.8456 68.0903L45.1028 68.5191ZM45.874 67.6932C46.01 67.3759 46.0742 67.0145 46.0742 66.6147H45.5742C45.5742 66.9616 45.5184 67.2535 45.4144 67.4962L45.874 67.6932ZM46.0742 66.6147C46.0742 66.0419 45.9568 65.568 45.6705 65.248L45.2979 65.5814C45.4649 65.768 45.5742 66.0942 45.5742 66.6147H46.0742ZM45.6705 65.248C45.4033 64.9493 45.0524 64.7619 44.6324 64.6794L44.536 65.17C44.8627 65.2342 45.1118 65.3734 45.2979 65.5814L45.6705 65.248ZM44.6375 64.6804C44.2504 64.596 43.8255 64.5547 43.3642 64.5547V65.0547C43.7962 65.0547 44.1847 65.0934 44.5309 65.169L44.6375 64.6804ZM43.3642 64.5547C43.2491 64.5547 43.0892 64.5618 42.8876 64.5753L42.9208 65.0741C43.1192 65.0609 43.2659 65.0547 43.3642 65.0547V64.5547ZM42.8956 64.5748C42.697 64.5817 42.4856 64.5954 42.2616 64.6157L42.3068 65.1137C42.5228 65.094 42.7248 65.081 42.9128 65.0745L42.8956 64.5748ZM42.2686 64.6152C42.0518 64.6287 41.854 64.6457 41.6755 64.6663L41.7328 65.163C41.901 65.1436 42.0899 65.1273 42.2998 65.1142L42.2686 64.6152ZM41.685 64.6654C41.5118 64.6788 41.3892 64.6889 41.3193 64.6959L41.3691 65.1935C41.4325 65.1871 41.5499 65.1773 41.7234 65.164L41.685 64.6654ZM41.0946 64.9594C41.1014 65.0745 41.1148 65.2725 41.1348 65.5525L41.6336 65.5169C41.6136 65.2369 41.6003 65.0416 41.5938 64.93L41.0946 64.9594ZM41.1354 65.559C41.1618 65.8301 41.1883 66.1415 41.2149 66.4935L41.7135 66.4559C41.6867 66.1012 41.6599 65.786 41.633 65.5104L41.1354 65.559ZM41.2153 66.4982C41.2485 66.8501 41.2784 67.1987 41.3049 67.5439L41.8035 67.5055C41.7767 67.1574 41.7466 66.806 41.7131 66.4512L41.2153 66.4982ZM41.3049 67.5439C41.3316 67.8904 41.3549 68.1969 41.3749 68.4634L41.8735 68.426C41.8535 68.1591 41.8301 67.8523 41.8035 67.5055L41.3049 67.5439ZM41.3754 68.4696C41.4021 68.7367 41.4185 68.9133 41.4248 69.0025L41.9236 68.9669C41.9166 68.8695 41.8996 68.686 41.873 68.4198L41.3754 68.4696ZM53.0017 76.6547V76.9047H53.23L53.2507 76.6773L53.0017 76.6547ZM52.4117 76.6447L52.4186 76.3947H52.4117V76.6447ZM51.7017 76.6247L51.6874 76.8743L51.6878 76.8743L51.7017 76.6247ZM51.1017 76.5647L50.8518 76.5715L50.8575 76.7788L51.0622 76.8116L51.1017 76.5647ZM51.0617 74.7547L51.3116 74.7501L51.0617 74.7547ZM51.0317 72.4947L50.7817 72.4968L50.7817 72.4968L51.0317 72.4947ZM51.0317 67.1547L50.7817 67.1519L50.7817 67.1533L51.0317 67.1547ZM51.0717 63.4047L51.0491 63.1557L50.824 63.1762L50.8217 63.4022L51.0717 63.4047ZM51.4117 63.3847L51.4008 63.1349L51.4008 63.1349L51.4117 63.3847ZM51.9217 63.3747V63.6248L51.9303 63.6245L51.9217 63.3747ZM52.4817 63.3647V63.6149L52.4909 63.6145L52.4817 63.3647ZM52.9517 63.3547L53.2016 63.3465L53.1936 63.1047H52.9517V63.3547ZM53.0217 65.9147L52.7717 65.9203L52.7718 65.9222L53.0217 65.9147ZM53.0817 68.5347L53.3317 68.5308L53.3317 68.5308L53.0817 68.5347ZM53.0917 71.9947L52.8417 71.9909V71.9947H53.0917ZM53.0817 73.3747L52.8317 73.3712V73.3747H53.0817ZM53.0617 74.7647L52.8118 74.7572L52.8117 74.7609L53.0617 74.7647ZM53.0317 75.9347L52.7818 75.9249L52.7817 75.9297L53.0317 75.9347ZM53.0017 76.4047C52.8516 76.4047 52.6575 76.4014 52.4186 76.3948L52.4048 76.8946C52.6459 76.9013 52.8451 76.9047 53.0017 76.9047V76.4047ZM52.4117 76.3947C52.1831 76.3947 51.9511 76.3882 51.7156 76.3751L51.6878 76.8743C51.9323 76.8879 52.1736 76.8947 52.4117 76.8947V76.3947ZM51.716 76.3751C51.4881 76.3621 51.297 76.3428 51.1412 76.3178L51.0622 76.8116C51.2397 76.84 51.4486 76.8606 51.6874 76.8743L51.716 76.3751ZM51.3516 76.5579C51.3383 76.0722 51.325 75.4696 51.3116 74.7501L50.8117 74.7593C50.8251 75.4798 50.8384 76.0839 50.8518 76.5715L51.3516 76.5579ZM51.3116 74.7501C51.2983 74.031 51.2883 73.2785 51.2817 72.4926L50.7817 72.4968C50.7884 73.2842 50.7984 74.0384 50.8117 74.7593L51.3116 74.7501ZM51.2817 72.4926C51.275 71.7065 51.2717 70.9872 51.2717 70.3347H50.7717C50.7717 70.9889 50.775 71.7096 50.7817 72.4968L51.2817 72.4926ZM51.2717 70.3347C51.2717 69.3886 51.275 68.3291 51.2817 67.1561L50.7817 67.1533C50.775 68.327 50.7717 69.3875 50.7717 70.3347H51.2717ZM51.2817 67.1575C51.295 65.9774 51.3083 64.7273 51.3217 63.4072L50.8217 63.4022C50.8084 64.7221 50.795 65.972 50.7817 67.1519L51.2817 67.1575ZM51.0943 63.6537C51.1615 63.6476 51.2699 63.6411 51.4226 63.6345L51.4008 63.1349C51.2468 63.1416 51.1286 63.1485 51.0491 63.1557L51.0943 63.6537ZM51.4226 63.6345C51.5716 63.628 51.7379 63.6247 51.9217 63.6247V63.1247C51.7321 63.1247 51.5585 63.1281 51.4008 63.1349L51.4226 63.6345ZM51.9303 63.6245C52.121 63.618 52.3048 63.6147 52.4817 63.6147V63.1147C52.2986 63.1147 52.1091 63.1181 51.9131 63.1248L51.9303 63.6245ZM52.4909 63.6145C52.6689 63.6079 52.8223 63.6047 52.9517 63.6047V63.1047C52.8144 63.1047 52.6545 63.1081 52.4724 63.1149L52.4909 63.6145ZM52.7018 63.3629C52.7285 64.1753 52.7518 65.0277 52.7718 65.9203L53.2716 65.9091C53.2516 65.015 53.2283 64.1608 53.2016 63.3465L52.7018 63.3629ZM52.7718 65.9222C52.7984 66.8144 52.8184 67.6865 52.8317 68.5386L53.3317 68.5308C53.3183 67.6762 53.2983 66.8017 53.2716 65.9072L52.7718 65.9222ZM52.8317 68.5386C52.845 69.3909 52.8517 70.1662 52.8517 70.8647H53.3517C53.3517 70.1632 53.345 69.3852 53.3317 68.5308L52.8317 68.5386ZM52.8517 70.8647C52.8517 71.1764 52.8484 71.5517 52.8417 71.9909L53.3417 71.9985C53.3483 71.5577 53.3517 71.1797 53.3517 70.8647H52.8517ZM52.8417 71.9947C52.8417 72.4334 52.8384 72.8923 52.8317 73.3712L53.3317 73.3782C53.3383 72.8971 53.3417 72.436 53.3417 71.9947H52.8417ZM52.8317 73.3747C52.8317 73.8524 52.8251 74.3132 52.8118 74.7572L53.3116 74.7722C53.325 74.3228 53.3317 73.857 53.3317 73.3747H52.8317ZM52.8117 74.7609C52.8051 75.1995 52.7951 75.5874 52.7819 75.9249L53.2815 75.9445C53.2949 75.602 53.305 75.2099 53.3117 74.7685L52.8117 74.7609ZM52.7817 75.9297C52.7751 76.2626 52.7652 76.4949 52.7527 76.6321L53.2507 76.6773C53.2649 76.5211 53.275 76.2735 53.2816 75.9397L52.7817 75.9297ZM58.7862 76.4147L58.7072 76.6519L58.7105 76.653L58.7862 76.4147ZM57.2362 75.6947L57.101 75.905L57.1045 75.9072L57.2362 75.6947ZM56.0162 74.7147L56.1947 74.5396L56.1947 74.5396L56.0162 74.7147ZM55.2262 73.6747L55.0262 73.5247L54.9311 73.6515L55.0053 73.7917L55.2262 73.6747ZM55.4562 73.4347L55.6276 73.6168L55.633 73.6115L55.4562 73.4347ZM55.8462 73.0847L56.0046 73.2783L56.0096 73.2739L55.8462 73.0847ZM56.2762 72.7347L56.4277 72.9336L56.4291 72.9325L56.2762 72.7347ZM56.6362 72.4847L56.8401 72.34L56.7089 72.1552L56.5122 72.2676L56.6362 72.4847ZM57.2162 73.2247L57.4079 73.0642L57.4079 73.0642L57.2162 73.2247ZM58.0662 74.0747L57.9035 74.2646L57.9077 74.268L58.0662 74.0747ZM59.1962 74.7647L59.0947 74.9932L59.099 74.995L59.1962 74.7647ZM62.1462 74.6747L62.2764 74.8881L62.279 74.8865L62.1462 74.6747ZM63.0062 73.7647L63.2298 73.8765L63.2306 73.8749L63.0062 73.7647ZM63.0062 71.7747L63.2118 71.6324L63.2118 71.6324L63.0062 71.7747ZM62.2662 71.0847L62.1286 71.2934L62.1317 71.2954L62.2662 71.0847ZM61.1762 70.5247L61.2697 70.2928L61.2697 70.2928L61.1762 70.5247ZM59.8662 70.0647L59.7914 70.3033L59.7934 70.3039L59.8662 70.0647ZM56.3762 68.0547L56.1742 68.2019L56.1742 68.2019L56.3762 68.0547ZM56.4562 64.5047L56.6485 64.6645L56.6496 64.6632L56.4562 64.5047ZM58.0262 63.4347L58.1103 63.6701L58.1124 63.6694L58.0262 63.4347ZM62.1062 63.3547L62.0327 63.5936L62.0334 63.5939L62.1062 63.3547ZM63.7062 64.0547L63.5748 64.2674L63.5771 64.2688L63.7062 64.0547ZM64.7162 64.8947L64.9265 65.0299L65.0216 64.882L64.9146 64.7425L64.7162 64.8947ZM64.4262 65.2947L64.2281 65.1423L64.2281 65.1423L64.4262 65.2947ZM64.0062 65.8047L63.8185 65.6395L63.8148 65.6439L64.0062 65.8047ZM63.6362 66.1947L63.4504 66.3619L63.6153 66.5452L63.8008 66.3828L63.6362 66.1947ZM62.8562 65.5347L62.7075 65.7357L62.7121 65.7389L62.8562 65.5347ZM61.6462 64.9047L61.5562 65.138L61.5603 65.1395L61.6462 64.9047ZM58.4362 65.1147L58.5904 65.3115L58.5924 65.3099L58.4362 65.1147ZM58.0462 67.1247L58.2532 66.9845L58.2532 66.9845L58.0462 67.1247ZM58.5962 67.6547L58.4604 67.8646L58.4649 67.8674L58.5962 67.6547ZM59.3462 68.0247L59.2553 68.2576L59.2553 68.2576L59.3462 68.0247ZM60.1662 68.2947L60.2388 68.0553L60.231 68.0532L60.1662 68.2947ZM62.0662 68.9247L61.981 69.1597L61.9818 69.16L62.0662 68.9247ZM63.7062 69.7147L63.5716 69.9254L63.5729 69.9262L63.7062 69.7147ZM64.8562 70.8547L64.6435 70.9861L64.6444 70.9875L64.8562 70.8547ZM64.9562 74.0747L64.7263 73.9766L64.7263 73.9766L64.9562 74.0747ZM64.0262 75.4147L63.8524 75.235L63.8509 75.2364L64.0262 75.4147ZM62.5562 76.3447L62.4652 76.1118L62.4652 76.1118L62.5562 76.3447ZM60.5762 76.4347C59.9738 76.4347 59.4028 76.3482 58.8619 76.1764L58.7105 76.653C59.303 76.8412 59.9253 76.9347 60.5762 76.9347V76.4347ZM58.8653 76.1775C58.3226 75.9966 57.8238 75.7647 57.3679 75.4822L57.1045 75.9072C57.5954 76.2114 58.1298 76.4594 58.7072 76.6519L58.8653 76.1775ZM57.3714 75.4844C56.9186 75.1933 56.5268 74.8781 56.1947 74.5396L55.8378 74.8898C56.199 75.2579 56.6205 75.5961 57.101 75.905L57.3714 75.4844ZM56.1947 74.5396C55.8603 74.1988 55.6132 73.8713 55.4472 73.5577L55.0053 73.7917C55.1993 74.1581 55.4788 74.5239 55.8378 74.8898L56.1947 74.5396ZM55.4262 73.8247C55.4521 73.7902 55.5146 73.7231 55.6276 73.6167L55.2849 73.2526C55.1712 73.3597 55.0804 73.4525 55.0262 73.5247L55.4262 73.8247ZM55.633 73.6115C55.7395 73.505 55.8632 73.3938 56.0045 73.2782L55.6879 72.8912C55.5359 73.0156 55.3996 73.1378 55.2794 73.2579L55.633 73.6115ZM56.0096 73.2739C56.1528 73.1502 56.2922 73.0368 56.4277 72.9336L56.1247 72.5358C55.9803 72.6459 55.833 72.7658 55.6828 72.8955L56.0096 73.2739ZM56.4291 72.9325C56.5721 72.822 56.6816 72.7467 56.7603 72.7018L56.5122 72.2676C56.4042 72.3294 56.2736 72.4207 56.1234 72.5369L56.4291 72.9325ZM56.4323 72.6294C56.5842 72.8434 56.7821 73.0956 57.0245 73.3852L57.4079 73.0642C57.1704 72.7805 56.9816 72.5394 56.8401 72.34L56.4323 72.6294ZM57.0245 73.3852C57.2746 73.6838 57.5679 73.9769 57.9035 74.2645L58.2289 73.8849C57.9112 73.6125 57.6379 73.3389 57.4079 73.0642L57.0245 73.3852ZM57.9077 74.268C58.2595 74.5565 58.6556 74.798 59.0947 74.9932L59.2978 74.5362C58.8969 74.3581 58.5396 74.1396 58.2247 73.8814L57.9077 74.268ZM59.099 74.995C59.5593 75.1892 60.0593 75.2847 60.5962 75.2847V74.7847C60.1198 74.7847 59.6865 74.7002 59.2934 74.5344L59.099 74.995ZM60.5962 75.2847C61.2651 75.2847 61.8315 75.1596 62.2764 74.8881L62.016 74.4613C61.6743 74.6698 61.2074 74.7847 60.5962 74.7847V75.2847ZM62.279 74.8865C62.7052 74.6193 63.0263 74.2835 63.2298 73.8765L62.7826 73.6529C62.6261 73.9659 62.3739 74.2368 62.0134 74.4629L62.279 74.8865ZM63.2306 73.8749C63.4252 73.4786 63.5262 73.0777 63.5262 72.6747H63.0262C63.0262 72.9916 62.9473 73.3175 62.7818 73.6545L63.2306 73.8749ZM63.5262 72.6747C63.5262 72.2879 63.4229 71.9374 63.2118 71.6324L62.8007 71.917C62.9495 72.132 63.0262 72.3815 63.0262 72.6747H63.5262ZM63.2118 71.6324C63.0099 71.3407 62.7372 71.0887 62.4007 70.874L62.1317 71.2954C62.4219 71.4807 62.6426 71.6887 62.8007 71.917L63.2118 71.6324ZM62.4039 70.876C62.0743 70.6586 61.6957 70.4646 61.2697 70.2928L61.0827 70.7566C61.4834 70.9181 61.8314 71.0974 62.1286 71.2934L62.4039 70.876ZM61.2697 70.2928C60.8491 70.1232 60.4055 69.9675 59.939 69.8255L59.7934 70.3039C60.247 70.4419 60.6767 70.5928 61.0827 70.7566L61.2697 70.2928ZM59.941 69.8261C59.1655 69.583 58.4864 69.3083 57.9019 69.0031L57.6705 69.4463C58.2861 69.7678 58.9936 70.0531 59.7914 70.3032L59.941 69.8261ZM57.9019 69.0031C57.3302 68.7045 56.892 68.3381 56.5783 67.9075L56.1742 68.2019C56.5404 68.7046 57.0422 69.1182 57.6705 69.4463L57.9019 69.0031ZM56.5783 67.9075C56.2759 67.4924 56.1162 66.9605 56.1162 66.2947H55.6162C55.6162 67.0422 55.7966 67.6837 56.1742 68.2019L56.5783 67.9075ZM56.1162 66.2947C56.1162 65.6226 56.2986 65.0855 56.6485 64.6645L56.2639 64.3449C55.8272 64.8705 55.6162 65.5267 55.6162 66.2947H56.1162ZM56.6496 64.6632C57.0109 64.2223 57.4945 63.89 58.1103 63.6701L57.9421 63.1993C57.2512 63.446 56.6882 63.8271 56.2629 64.3462L56.6496 64.6632ZM58.1124 63.6694C58.7357 63.4404 59.4129 63.3247 60.1462 63.3247V62.8247C59.3595 62.8247 58.6234 62.949 57.94 63.2L58.1124 63.6694ZM60.1462 63.3247C60.8238 63.3247 61.4522 63.415 62.0327 63.5936L62.1797 63.1158C61.5469 62.921 60.8686 62.8247 60.1462 62.8247V63.3247ZM62.0334 63.5939C62.6302 63.7755 63.1431 64.0007 63.5749 64.2674L63.8376 63.842C63.3627 63.5487 62.8089 63.3072 62.179 63.1155L62.0334 63.5939ZM63.5771 64.2688C64.0151 64.5328 64.3236 64.7937 64.5179 65.0469L64.9146 64.7425C64.6689 64.4224 64.3041 64.1232 63.8353 63.8406L63.5771 64.2688ZM64.5059 64.7595C64.4518 64.8437 64.3604 64.9703 64.2281 65.1423L64.6244 65.4471C64.7587 65.2725 64.8606 65.1324 64.9265 65.0299L64.5059 64.7595ZM64.2281 65.1423C64.0981 65.3112 63.9616 65.4769 63.8185 65.6395L64.1939 65.9699C64.3441 65.7991 64.4876 65.6249 64.6244 65.4471L64.2281 65.1423ZM63.8148 65.6439C63.6792 65.8054 63.565 65.9248 63.4716 66.0066L63.8008 66.3828C63.9208 66.2779 64.0533 66.1374 64.1977 65.9655L63.8148 65.6439ZM63.822 66.0275C63.6248 65.8083 63.3483 65.576 63.0004 65.3305L62.7121 65.7389C63.0441 65.9733 63.2877 66.1811 63.4504 66.3619L63.822 66.0275ZM63.0049 65.3337C62.6488 65.0702 62.2233 64.8498 61.7322 64.6699L61.5603 65.1395C62.0158 65.3063 62.397 65.5059 62.7075 65.7357L63.0049 65.3337ZM61.7362 64.6714C61.2354 64.4783 60.6673 64.3847 60.0362 64.3847V64.8847C60.6185 64.8847 61.1237 64.9711 61.5563 65.1379L61.7362 64.6714ZM60.0362 64.3847C59.3301 64.3847 58.7362 64.5546 58.28 64.9195L58.5924 65.3099C58.9362 65.0348 59.4091 64.8847 60.0362 64.8847V64.3847ZM58.2821 64.9179C57.8182 65.2813 57.5862 65.7789 57.5862 66.3847H58.0862C58.0862 65.9238 58.2543 65.5748 58.5904 65.3115L58.2821 64.9179ZM57.5862 66.3847C57.5862 66.7137 57.6672 67.011 57.8392 67.2649L58.2532 66.9845C58.1452 66.8251 58.0862 66.629 58.0862 66.3847H57.5862ZM57.8392 67.2649C57.9995 67.5015 58.2079 67.7012 58.4604 67.8646L58.732 67.4448C58.5312 67.3149 58.3729 67.1612 58.2532 66.9845L57.8392 67.2649ZM58.4649 67.8674C58.7056 68.0161 58.9693 68.146 59.2553 68.2576L59.4371 67.7918C59.1765 67.6901 58.9402 67.5733 58.7276 67.442L58.4649 67.8674ZM59.2553 68.2576C59.5369 68.3675 59.8189 68.4604 60.1014 68.5362L60.231 68.0532C59.9668 67.9824 59.7022 67.8953 59.4371 67.7918L59.2553 68.2576ZM60.0937 68.534C60.7497 68.7327 61.3788 68.9413 61.981 69.1597L62.1515 68.6897C61.5403 68.468 60.9027 68.2566 60.2387 68.0554L60.0937 68.534ZM61.9818 69.16C62.58 69.3746 63.1094 69.6301 63.5716 69.9254L63.8408 69.504C63.343 69.186 62.7791 68.9148 62.1506 68.6894L61.9818 69.16ZM63.5729 69.9262C64.03 70.2142 64.3851 70.5677 64.6435 70.9861L65.0689 70.7233C64.7673 70.235 64.3558 69.8285 63.8395 69.5032L63.5729 69.9262ZM64.6444 70.9875C64.8941 71.3858 65.0262 71.8871 65.0262 72.5047H65.5262C65.5262 71.8156 65.3783 71.2169 65.068 70.7219L64.6444 70.9875ZM65.0262 72.5047C65.0262 73.0178 64.9263 73.5078 64.7263 73.9766L65.1862 74.1728C65.4128 73.6416 65.5262 73.0849 65.5262 72.5047H65.0262ZM64.7263 73.9766C64.5266 74.4447 64.2361 74.8639 63.8524 75.235L64.2 75.5944C64.6297 75.1788 64.9592 74.7047 65.1862 74.1728L64.7263 73.9766ZM63.8509 75.2364C63.4776 75.6036 63.0172 75.8961 62.4652 76.1118L62.6472 76.5775C63.2552 76.3399 63.7749 76.0125 64.2015 75.593L63.8509 75.2364ZM62.4652 76.1118C61.9191 76.3253 61.2908 76.4347 60.5762 76.4347V76.9347C61.3416 76.9347 62.0333 76.8175 62.6472 76.5775L62.4652 76.1118Z" fill="black"/>
</svg>
